<?xml version="1.0" encoding="UTF-8" standalone="no"?>
<svg width="26px" height="26px" viewBox="0 0 26 26" version="1.1" xmlns="http://www.w3.org/2000/svg" xmlns:xlink="http://www.w3.org/1999/xlink" xmlns:sketch="http://www.bohemiancoding.com/sketch/ns">
    <!-- Generator: Sketch 3.3.2 (12043) - http://www.bohemiancoding.com/sketch -->
    <title>social-network34</title>
    <desc>Created with Sketch.</desc>
    <defs></defs>
    <g id="Page-1" stroke="none" stroke-width="1" fill="none" fill-rule="evenodd" sketch:type="MSPage">
        <g id="Contact---Form" sketch:type="MSArtboardGroup" transform="translate(-758.000000, -935.000000)" fill="#FFFFFF">
            <g id="social-network34" sketch:type="MSLayerGroup" transform="translate(758.000000, 935.500000)">
                <path d="M12.7569593,0 C5.72309086,0 0,5.6078125 0,12.5 C0,19.3921875 5.72309086,25 12.7569593,25 C19.7908277,25 25.5139186,19.3921875 25.5139186,12.5 C25.5139186,5.6078125 19.7908277,0 12.7569593,0 L12.7569593,0 Z M21.190904,5.7640625 C22.7089822,7.58125 23.6258886,9.8953125 23.6498079,12.415625 C23.2894238,12.340625 19.6903667,11.625 16.0626064,12.071875 L15.8281972,11.5203125 C15.6017612,11 15.359379,10.4828125 15.1058344,9.9734375 C19.1354389,8.3625 20.9612787,6.06875 21.190904,5.7640625 L21.190904,5.7640625 Z M12.7569593,1.8390625 C15.5252195,1.8390625 18.0558813,2.85625 19.9789929,4.5296875 C19.7844492,4.803125 18.14518,6.9625 14.2702536,8.3859375 C12.4842793,5.171875 10.505356,2.53125 10.2039728,2.1359375 C11.0236074,1.9421875 11.8783237,1.8390625 12.7569593,1.8390625 L12.7569593,1.8390625 Z M8.12458845,2.853125 C8.41162003,3.2390625 10.3586509,5.8828125 12.1637607,9.028125 C7.06735545,10.3546875 2.5785004,10.3359375 2.0905467,10.3296875 C2.79696332,7.015625 5.07567518,4.2625 8.12458845,2.853125 L8.12458845,2.853125 Z M1.85932682,12.515625 L1.86411068,12.1890625 C2.34090203,12.2 7.62228318,12.265625 13.0615317,10.6703125 C13.3756718,11.26875 13.6722711,11.8765625 13.9465457,12.4828125 L13.5159984,12.609375 C7.89815242,14.3890625 4.90824009,19.2421875 4.65947938,19.6546875 C2.92134368,17.7625 1.86092144,15.259375 1.85932682,12.515625 L1.85932682,12.515625 Z M12.7553647,23.1921875 C10.2374598,23.1921875 7.91569324,22.3515625 6.06752876,20.9390625 C6.26366701,20.5484375 8.47062097,16.3703125 14.6162861,14.271875 L14.688044,14.2484375 C16.2188791,18.1421875 16.848754,21.4078125 17.0129998,22.3453125 C15.7070061,22.890625 14.2670643,23.19375 12.7553647,23.1921875 L12.7553647,23.1921875 Z M18.8452181,21.3671875 C18.7335947,20.7171875 18.1515585,17.5921875 16.7291575,13.7546875 C20.1432387,13.21875 23.1427188,14.096875 23.5158598,14.2125 C23.0279061,17.18125 21.2913651,19.7484375 18.8452181,21.3671875 L18.8452181,21.3671875 Z" id="Shape" sketch:type="MSShapeGroup"></path>
            </g>
        </g>
    </g>
</svg>