<?xml version="1.0" encoding="UTF-8" standalone="no"?>
<svg width="27px" height="26px" viewBox="0 0 27 26" version="1.1" xmlns="http://www.w3.org/2000/svg" xmlns:xlink="http://www.w3.org/1999/xlink" xmlns:sketch="http://www.bohemiancoding.com/sketch/ns">
    <!-- Generator: Sketch 3.3.2 (12043) - http://www.bohemiancoding.com/sketch -->
    <title>github17</title>
    <desc>Created with Sketch.</desc>
    <defs></defs>
    <g id="Page-1" stroke="none" stroke-width="1" fill="none" fill-rule="evenodd" sketch:type="MSPage">
        <g id="Contact---Form" sketch:type="MSArtboardGroup" transform="translate(-655.000000, -935.000000)" fill="#FFFFFF">
            <g id="github17" sketch:type="MSLayerGroup" transform="translate(655.000000, 934.950001)">
                <path d="M17.9238713,25.1734892 C17.7990274,25.218491 17.6734577,25.2729288 17.5449846,25.2954297 C17.0528675,25.3832559 16.7378544,25.1292131 16.734951,24.6262084 C16.7284185,23.6920568 16.7284185,22.7593568 16.7436611,21.8252052 C16.7596295,20.7509672 16.734951,19.69052 15.9169333,18.8042736 C16.4032438,18.7171732 16.8358423,18.6562029 17.259005,18.5589408 C20.0621857,17.9151238 21.5182138,16.146986 21.704028,13.2124289 C21.7991125,11.7186573 21.5327305,10.348278 20.5397862,9.17169694 C20.4679283,9.08895157 20.4642992,8.90095991 20.4984135,8.78047105 C20.762618,7.80785009 20.6856793,6.85773007 20.3779246,5.90688421 C20.3017118,5.66953566 20.1754162,5.59622617 19.940971,5.61146874 C19.1178724,5.65719644 18.3637282,5.94607938 17.698862,6.39029134 C17.0579483,6.82071241 16.4613107,6.91434532 15.6999082,6.74014455 C14.0232258,6.36198372 12.3356558,6.47231087 10.6626026,6.85990758 C10.4731593,6.90490944 10.2183907,6.84466501 10.0449157,6.7430479 C9.25956059,6.28286754 8.47420546,5.83575223 7.56836147,5.65719644 C6.86792921,5.52073918 6.80695894,5.55557933 6.62114479,6.23278481 C6.38742543,7.08636858 6.36419866,7.94067818 6.60299888,8.7993428 C6.63711319,8.92418668 6.6015472,9.12451756 6.518076,9.2166988 C4.66211199,11.2875104 5.33423662,15.2004952 6.58485296,16.6993476 C7.55747392,17.8635894 8.84946295,18.3876434 10.2837159,18.6598321 C10.5341295,18.7062856 10.7830915,18.7418516 11.0335051,18.7854018 C10.8186575,19.344296 10.6255849,19.8719791 10.4071081,20.3909522 C10.3642838,20.4911177 10.2285524,20.5753147 10.1174994,20.6174132 C8.71082817,21.1632423 7.50158451,20.7618547 6.69663179,19.4851082 C6.26621073,18.8042736 5.71384912,18.2954622 4.89075049,18.1481173 C4.86462038,18.1430365 4.83776443,18.1292456 4.81381182,18.1328748 C4.59243168,18.1909417 4.37322905,18.251912 4.15257474,18.3114306 C4.27669279,18.4841797 4.36451901,18.7164474 4.53073557,18.820242 C5.22826448,19.2615506 5.68191232,19.8908509 5.9816828,20.6333816 C6.45275072,21.7976234 7.36730475,22.3165966 8.55549915,22.4182137 C9.13544254,22.4653931 9.72119263,22.425472 10.3562996,22.425472 C10.3562996,23.1484052 10.3824297,23.9736814 10.345412,24.7953283 C10.3265403,25.2380886 9.8816025,25.4151927 9.34883848,25.2337336 C7.93563475,24.7503265 6.62549981,24.0571526 5.49392065,23.0830799 C1.40818681,19.5634986 -0.166878471,15.1141206 1.19116168,9.90624351 C2.54484682,4.71506062 6.07313821,1.53081575 11.3485181,0.531338844 C18.6482562,-0.849202243 25.5633008,4.46682453 26.2876857,11.8768897 C26.8596449,17.7184221 23.4213572,23.1846971 17.9238713,25.1734892 L17.9238713,25.1734892 Z M11.0422151,18.75782 C11.0378601,18.7679817 11.0349568,18.7752401 11.0306017,18.7854018 C11.0436668,18.7875793 11.0567318,18.7897568 11.0705227,18.7919344 C11.0806845,18.7926602 11.0893945,18.8108061 11.0422151,18.75782 L11.0422151,18.75782 Z M7.73965889,21.0667061 C7.85361522,21.1371122 7.9624907,21.2263901 8.08588292,21.2648594 C8.13088478,21.2793762 8.21435598,21.1770332 8.3617008,21.0681577 C8.1570149,20.9904932 8.03652603,20.9222646 7.90950464,20.9048445 C7.86014775,20.8990378 7.79627414,21.0100908 7.73965889,21.0667061 L7.73965889,21.0667061 Z M8.77978264,21.2452618 C8.79647688,21.3214747 8.94817672,21.4165593 9.03745461,21.4151076 C9.12382916,21.4136559 9.2080262,21.2989737 9.29440074,21.2336485 C9.2160104,21.1617906 9.13762005,21.0921103 8.89664232,20.8750852 C8.84438209,21.0260592 8.75800755,21.1479997 8.77978264,21.2452618 L8.77978264,21.2452618 Z M10.0558033,20.938233 C9.94837946,20.9636373 9.85764989,21.0630769 9.75966196,21.1313055 C9.81700305,21.2038892 9.87434413,21.271392 9.96652537,21.3853483 C10.0935468,21.2692144 10.1799213,21.1886466 10.2670217,21.1102562 C10.194438,21.0471085 10.1095152,20.9251679 10.0558033,20.938233 L10.0558033,20.938233 Z M6.89260765,20.5078119 C6.95212625,20.6203166 7.04430749,20.7175787 7.16915137,20.8765369 C7.25262258,20.7400796 7.34335214,20.6355591 7.32738374,20.6145099 C7.24826756,20.5107153 7.14084375,20.4257924 7.03487161,20.3481279 C7.02761325,20.3423212 6.88026843,20.4831335 6.89260765,20.5078119 L6.89260765,20.5078119 Z" id="Shape" sketch:type="MSShapeGroup"></path>
            </g>
        </g>
    </g>
</svg>