<?xml version="1.0" encoding="UTF-8" standalone="no"?>
<svg width="26px" height="21px" viewBox="0 0 26 21" version="1.1" xmlns="http://www.w3.org/2000/svg" xmlns:xlink="http://www.w3.org/1999/xlink" xmlns:sketch="http://www.bohemiancoding.com/sketch/ns">
    <!-- Generator: Sketch 3.3.2 (12043) - http://www.bohemiancoding.com/sketch -->
    <title>Shape</title>
    <desc>Created with Sketch.</desc>
    <defs></defs>
    <g id="Page-1" stroke="none" stroke-width="1" fill="none" fill-rule="evenodd" sketch:type="MSPage">
        <g id="Contact---Form" sketch:type="MSArtboardGroup" transform="translate(-707.000000, -937.000000)" fill="#FFFFFF">
            <path d="M724.723122,937.5 L724.834254,937.5 C726.278973,937.5 727.612561,938.166848 728.612751,939.16712 C729.835206,938.944837 730.835397,938.500272 731.835587,937.944565 C731.50219,939.16712 730.613132,940.167391 729.612942,940.834239 C730.613132,940.723098 731.613322,940.389674 732.502381,940.05625 C731.835587,941.056522 730.946529,941.945652 729.946338,942.723641 L729.946338,943.390489 C729.946338,950.170109 724.834254,957.950001 715.388011,957.950001 C712.498572,957.950001 709.831397,957.06087 707.497619,955.616033 C707.942149,955.616033 708.275545,955.727175 708.720074,955.727175 C711.164984,955.727175 713.276498,954.949185 715.054614,953.504348 C712.831968,953.504348 710.94272,951.94837 710.275926,949.947827 C710.609323,950.058968 710.94272,950.058968 711.276117,950.058968 C711.720646,950.058968 712.165175,949.947827 712.609704,949.836685 C710.275926,949.39212 708.49781,947.280435 708.49781,944.835326 C708.49781,944.835326 708.49781,944.835326 708.49781,944.724185 C709.164603,945.057609 709.942529,945.391033 710.831588,945.391033 C709.498,944.501902 708.49781,942.945924 708.49781,941.167663 C708.49781,940.278533 708.720074,939.389402 709.164603,938.611413 C711.720646,941.72337 715.499143,943.723913 719.722169,943.946196 C719.611037,943.612772 719.611037,943.168207 719.611037,942.723641 C719.722169,939.833967 721.944815,937.5 724.723122,937.5 L724.723122,937.5 Z" id="Shape" sketch:type="MSShapeGroup"></path>
        </g>
    </g>
</svg>